<?xml version="1.0" encoding="UTF-8" standalone="no"?>
<!DOCTYPE svg PUBLIC "-//W3C//DTD SVG 1.1//EN" "http://www.w3.org/Graphics/SVG/1.1/DTD/svg11.dtd">
<svg width="100%" height="100%" viewBox="0 0 180 180" version="1.1" xmlns="http://www.w3.org/2000/svg" xmlns:xlink="http://www.w3.org/1999/xlink" xml:space="preserve" xmlns:serif="http://www.serif.com/" style="fill-rule:evenodd;clip-rule:evenodd;stroke-linejoin:round;stroke-miterlimit:2;">
    <g transform="matrix(1,0,0,1,0,10)">
        <path d="M0,0L180,0" style="fill:none;"/>
    </g>
    <g transform="matrix(1,0,0,1,10,0)">
        <path d="M0,0L0,180" style="fill:none;"/>
    </g>
    <g transform="matrix(1,0,0,1,0,-10)">
        <path d="M0,180L180,180" style="fill:none;"/>
    </g>
    <g transform="matrix(1,0,0,1,-10,0)">
        <path d="M180,0L180,180" style="fill:none;"/>
    </g>
    <path d="M0,0L180,0L180,180L0,180"/>
    <path d="M10,10L170,10L170,170L10,170" style="fill:white;"/>
    <g transform="matrix(1.317722,0,0,1.317722,-12.872948,59.585674)">
        <text x="20.444px" y="29.373px" style="font-family:'Arial-BoldMT', 'Arial', sans-serif;font-weight:700;font-size:71.442px;">ist</text>
        <g transform="matrix(71.44165,0,0,71.44165,119.757526,82.954606)">
        </g>
        <text x="20.444px" y="82.955px" style="font-family:'Arial-BoldMT', 'Arial', sans-serif;font-weight:700;font-size:71.442px;">.se</text>
    </g>
</svg>
